# xmcd CD database file
#
# Track frame offsets:
#	150
#	21112
#	38641
#	53934
#	73200
#	93939
#	112024
#
# Disc length: 1952 seconds
#
# Revision: 0
# Processed by: cddbd v1.5.2PL0 Copyright (c) Steve Scherf et al.
# Submitted via: CDex 1.70beta2
#
DISCID=5a079e07
DTITLE=COOL&CREATE - 東方サマーフタリ
DYEAR=2009
DGENRE=東方アレンジ
TTITLE0=幻想サマーデイズ
TTITLE1=リグルライフ
TTITLE2=パルとパルる。
TTITLE3=騒音カーニバル
TTITLE4=Endless Dream
TTITLE5=R！T！S！
TTITLE6=?
EXTD=YEAR: 2009
EXTT0=
EXTT1=
EXTT2=
EXTT3=
EXTT4=
EXTT5=
EXTT6=
PLAYORDER=
